<svg width="17" height="17" viewBox="0 0 17 17" fill="none" xmlns="http://www.w3.org/2000/svg">
<path d="M14.8942 11.9277V13.893C14.895 14.0755 14.8576 14.2561 14.7845 14.4232C14.7114 14.5904 14.6042 14.7405 14.4698 14.8638C14.3353 14.9872 14.1766 15.0811 14.0038 15.1395C13.8309 15.198 13.6478 15.2197 13.4661 15.2033C11.4502 14.9842 9.51377 14.2954 7.81244 13.1921C6.22957 12.1862 4.88757 10.8442 3.88175 9.26137C2.77459 7.55231 2.08559 5.60649 1.87055 3.58153C1.85418 3.40037 1.87571 3.21779 1.93377 3.0454C1.99183 2.87302 2.08515 2.71461 2.20778 2.58027C2.33042 2.44593 2.47968 2.33859 2.64607 2.2651C2.81246 2.1916 2.99233 2.15356 3.17423 2.15338H5.13957C5.4575 2.15025 5.76572 2.26284 6.00679 2.47015C6.24785 2.67747 6.4053 2.96536 6.4498 3.28018C6.53275 3.90913 6.68659 4.52668 6.90838 5.12105C6.99652 5.35553 7.0156 5.61036 6.96335 5.85535C6.9111 6.10034 6.78971 6.32522 6.61358 6.50334L5.78158 7.33534C6.71417 8.97544 8.07216 10.3334 9.71227 11.266L10.5443 10.434C10.7224 10.2579 10.9473 10.1365 11.1922 10.0843C11.4372 10.032 11.6921 10.0511 11.9266 10.1392C12.5209 10.361 13.1385 10.5149 13.7674 10.5978C14.0857 10.6427 14.3763 10.803 14.584 11.0482C14.7918 11.2934 14.9022 11.6064 14.8942 11.9277Z" stroke="white" stroke-width="1.31023" stroke-linecap="round" stroke-linejoin="round"/>
</svg>
