<svg width="17" height="17" viewBox="0 0 17 17" fill="none" xmlns="http://www.w3.org/2000/svg">
<g clip-path="url(#clip0_4077_413)">
<path d="M14.5665 7.39456C14.5665 11.9804 8.67044 15.911 8.67044 15.911C8.67044 15.911 2.77441 11.9804 2.77441 7.39456C2.77441 5.83084 3.3956 4.33116 4.50132 3.22544C5.60704 2.11972 7.10672 1.49854 8.67044 1.49854C10.2342 1.49854 11.7338 2.11972 12.8396 3.22544C13.9453 4.33116 14.5665 5.83084 14.5665 7.39456Z" stroke="white" stroke-width="1.31023" stroke-linecap="round" stroke-linejoin="round"/>
<path d="M8.67044 9.3599C9.75587 9.3599 10.6358 8.47999 10.6358 7.39456C10.6358 6.30913 9.75587 5.42922 8.67044 5.42922C7.58501 5.42922 6.7051 6.30913 6.7051 7.39456C6.7051 8.47999 7.58501 9.3599 8.67044 9.3599Z" stroke="white" stroke-width="1.31023" stroke-linecap="round" stroke-linejoin="round"/>
</g>
<defs>
<clipPath id="clip0_4077_413">
<rect width="15.7227" height="15.7227" fill="white" transform="translate(0.809082 0.843262)"/>
</clipPath>
</defs>
</svg>
