<svg width="17" height="17" viewBox="0 0 17 17" fill="none" xmlns="http://www.w3.org/2000/svg">
<path d="M14.2393 8.00452C14.2416 8.86919 14.0396 9.72216 13.6497 10.494C13.1875 11.4188 12.4769 12.1967 11.5975 12.7405C10.7182 13.2843 9.70478 13.5726 8.67085 13.573C7.80618 13.5752 6.95322 13.3732 6.18142 12.9834L2.44727 14.2281L3.69198 10.494C3.30214 9.72216 3.10013 8.86919 3.10238 8.00452C3.10278 6.97059 3.39103 5.95719 3.93485 5.07783C4.47866 4.19847 5.25656 3.48788 6.18142 3.02566C6.95322 2.63582 7.80618 2.4338 8.67085 2.43605H8.99841C10.3639 2.51139 11.6536 3.08774 12.6206 4.05475C13.5876 5.02176 14.164 6.31148 14.2393 7.67697V8.00452Z" stroke="white" stroke-width="1.31023" stroke-linecap="round" stroke-linejoin="round"/>
</svg>
