<svg width="25" height="25" viewBox="0 0 25 25" fill="none" xmlns="http://www.w3.org/2000/svg">
<g clip-path="url(#clip0_21_1046)">
<path fill-rule="evenodd" clip-rule="evenodd" d="M12.5 0.387207C5.8724 0.387207 0.5 5.76801 0.5 12.4076C0.5 17.7176 3.938 22.2236 8.7068 23.8124C9.3068 23.9228 9.5252 23.552 9.5252 23.2328C9.5252 22.9484 9.5156 22.1912 9.5096 21.1892C6.1712 21.9152 5.4668 19.5776 5.4668 19.5776C4.922 18.188 4.1348 17.8184 4.1348 17.8184C3.0452 17.0744 4.2176 17.0888 4.2176 17.0888C5.4212 17.1728 6.0548 18.3272 6.0548 18.3272C7.1252 20.1632 8.864 19.6328 9.5468 19.3256C9.6572 18.5492 9.9668 18.02 10.31 17.72C7.646 17.4164 4.844 16.3844 4.844 11.7788C4.844 10.4672 5.312 9.39321 6.0788 8.55321C5.9552 8.24961 5.5436 7.02681 6.1964 5.37321C6.1964 5.37321 7.2044 5.04921 9.4964 6.60441C10.4753 6.33742 11.4853 6.20144 12.5 6.20001C13.52 6.20481 14.546 6.33801 15.5048 6.60441C17.7956 5.04921 18.8012 5.37201 18.8012 5.37201C19.4564 7.02681 19.0436 8.24961 18.9212 8.55321C19.6892 9.39321 20.1548 10.4672 20.1548 11.7788C20.1548 16.3964 17.348 17.4128 14.6756 17.7104C15.1064 18.0812 15.4892 18.8144 15.4892 19.9364C15.4892 21.542 15.4748 22.8392 15.4748 23.2328C15.4748 23.5544 15.6908 23.9288 16.3004 23.8112C18.69 23.0097 20.7672 21.4776 22.2386 19.4313C23.7099 17.385 24.501 14.928 24.5 12.4076C24.5 5.76801 19.1264 0.387207 12.5 0.387207Z" fill="#CECECE"/>
</g>
<defs>
<clipPath id="clip0_21_1046">
<rect width="24" height="24" fill="white" transform="translate(0.5 0.387207)"/>
</clipPath>
</defs>
</svg>
