<svg width="25" height="25" viewBox="0 0 25 25" fill="none" xmlns="http://www.w3.org/2000/svg">
<g clip-path="url(#clip0_21_1045)">
<path d="M24.5 12.3872C24.5 5.75979 19.1274 0.387207 12.5 0.387207C5.87258 0.387207 0.5 5.75979 0.5 12.3872C0.5 18.3767 4.8882 23.3412 10.625 24.2414V15.856H7.57812V12.3872H10.625V9.74346C10.625 6.73596 12.4166 5.07471 15.1576 5.07471C16.4701 5.07471 17.8438 5.30908 17.8438 5.30908V8.26221H16.3306C14.84 8.26221 14.375 9.18729 14.375 10.1372V12.3872H17.7031L17.1711 15.856H14.375V24.2414C20.1118 23.3412 24.5 18.3767 24.5 12.3872Z" fill="#CECECE"/>
</g>
<defs>
<clipPath id="clip0_21_1045">
<rect width="24" height="24" fill="white" transform="translate(0.5 0.387207)"/>
</clipPath>
</defs>
</svg>
