<svg width="25" height="25" viewBox="0 0 25 25" fill="none" xmlns="http://www.w3.org/2000/svg">
<g clip-path="url(#clip0_21_1047)">
<path d="M18.2705 10.4841C18.819 8.95596 20.3986 4.53564 20.3986 3.12002C20.3986 1.87314 19.6627 0.827832 18.3502 0.827832C16.2596 0.827832 14.3846 7.00127 13.7986 8.47314C13.344 7.13721 11.2158 0.387207 9.34083 0.387207C7.88301 0.387207 7.19864 1.46064 7.19864 2.81064C7.19864 4.46533 8.80176 8.75439 9.38301 10.4044C9.0877 10.2966 8.76895 10.2028 8.44551 10.2028C7.34864 10.2028 6.18145 11.5669 6.18145 12.6685C6.18145 13.0856 6.41114 13.6716 6.55645 14.0606C4.82676 14.5294 4.16114 15.6825 4.16114 17.4216C4.15645 20.806 7.3627 24.3872 11.8721 24.3872C17.4033 24.3872 20.844 20.2341 20.844 14.8763C20.844 12.856 20.5205 11.0325 18.2705 10.4841ZM16.6111 5.44971C16.7986 4.87314 17.6002 2.43564 18.3502 2.43564C18.7533 2.43564 18.8611 2.85283 18.8611 3.18564C18.8611 4.08096 17.0518 9.02627 16.6533 10.1231L15.0596 9.84189L16.6111 5.44971ZM8.67051 2.65127C8.67051 2.09346 9.3502 0.509082 10.8408 4.85908L12.4627 9.56064C11.7315 9.49971 11.1643 9.42002 10.8033 9.62627C10.2924 8.27627 8.67051 4.01533 8.67051 2.65127ZM8.5627 11.8247C9.93614 11.8247 11.708 16.2591 11.708 16.8591C11.708 17.0981 11.4783 17.3935 11.2111 17.3935C10.2315 17.3935 7.60645 13.7888 7.60645 12.8138C7.61114 12.4528 8.20176 11.8247 8.5627 11.8247ZM17.2018 20.5575C15.8377 22.0575 14.094 22.8356 12.0596 22.8356C9.2752 22.8356 7.07676 21.3075 6.01739 18.6966C5.21583 16.6622 6.19551 15.495 6.98301 15.495C7.51739 15.495 9.52833 18.3216 9.52833 18.9216C9.52833 19.1513 9.16739 19.3106 8.97989 19.3106C8.2252 19.3106 7.92989 18.5841 6.58458 16.9013C5.19239 18.2935 7.54551 20.9747 9.31739 20.9747C10.5408 20.9747 11.3377 19.8403 11.0986 19.006C11.2721 19.006 11.4877 19.02 11.6471 18.9778C11.6986 20.2481 12.0736 21.7622 13.6018 21.87C13.6018 21.8278 13.6955 21.5372 13.6955 21.5231C13.6955 20.7075 13.1986 19.995 13.1986 19.1653C13.1986 17.8388 14.2158 16.5544 15.2471 15.8044C15.6221 15.5231 16.0768 15.3497 16.5174 15.1903C16.9721 15.0169 17.4549 14.8153 17.8018 14.4685C17.7502 13.9435 17.5346 13.4794 17.0096 13.4794C15.7111 13.4794 11.3565 13.6669 11.3565 11.6185C11.3565 11.3044 11.3611 11.0044 12.1721 11.0044C13.6861 11.0044 17.5299 11.3794 18.6549 12.3685C19.5033 13.1231 19.794 17.6747 17.2018 20.5575ZM12.5799 14.6513C13.0346 14.7966 13.5033 14.8388 13.9721 14.9325C13.6252 15.1856 13.3158 15.495 13.0205 15.8278C12.8893 15.4294 12.7299 15.0403 12.5799 14.6513Z" fill="#CECECE"/>
</g>
<defs>
<clipPath id="clip0_21_1047">
<rect width="24" height="24" fill="white" transform="translate(0.5 0.387207)"/>
</clipPath>
</defs>
</svg>
