<svg width="25" height="25" viewBox="0 0 25 25" fill="none" xmlns="http://www.w3.org/2000/svg">
<g clip-path="url(#clip0_21_1044)">
<path d="M22.7234 0.387207H2.27187C1.29219 0.387207 0.5 1.16064 0.5 2.11689V22.6528C0.5 23.6091 1.29219 24.3872 2.27187 24.3872H22.7234C23.7031 24.3872 24.5 23.6091 24.5 22.6575V2.11689C24.5 1.16064 23.7031 0.387207 22.7234 0.387207ZM7.62031 20.8388H4.05781V9.38252H7.62031V20.8388ZM5.83906 7.82158C4.69531 7.82158 3.77188 6.89814 3.77188 5.75908C3.77188 4.62002 4.69531 3.69658 5.83906 3.69658C6.97813 3.69658 7.90156 4.62002 7.90156 5.75908C7.90156 6.89346 6.97813 7.82158 5.83906 7.82158ZM20.9516 20.8388H17.3937V15.27C17.3937 13.9435 17.3703 12.2325 15.5422 12.2325C13.6906 12.2325 13.4094 13.681 13.4094 15.1763V20.8388H9.85625V9.38252H13.2687V10.9481H13.3156C13.7891 10.0481 14.9516 9.09658 16.6813 9.09658C20.2859 9.09658 20.9516 11.4685 20.9516 14.5528V20.8388Z" fill="#CECECE"/>
</g>
<defs>
<clipPath id="clip0_21_1044">
<rect width="24" height="24" fill="white" transform="translate(0.5 0.387207)"/>
</clipPath>
</defs>
</svg>
