<svg width="25" height="25" viewBox="0 0 25 25" fill="none" xmlns="http://www.w3.org/2000/svg">
<g clip-path="url(#clip0_21_1043)">
<path d="M8.05016 22.1374C17.1045 22.1374 22.0583 14.6342 22.0583 8.12931C22.0583 7.91837 22.0536 7.70275 22.0442 7.49181C23.0079 6.79491 23.8395 5.93171 24.5 4.94275C23.6025 5.34205 22.6496 5.60283 21.6739 5.71619C22.7013 5.10036 23.4705 4.13292 23.8391 2.99322C22.8726 3.56601 21.8156 3.97006 20.7134 4.18806C19.9708 3.39901 18.989 2.87657 17.9197 2.7015C16.8504 2.52644 15.7532 2.7085 14.7977 3.21955C13.8423 3.73059 13.0818 4.54216 12.6338 5.52876C12.1859 6.51537 12.0754 7.62207 12.3195 8.67775C10.3625 8.57954 8.44794 8.07116 6.69998 7.18555C4.95203 6.29994 3.40969 5.05689 2.17297 3.53697C1.5444 4.62069 1.35206 5.9031 1.63503 7.12354C1.918 8.34399 2.65506 9.4109 3.69641 10.1074C2.91463 10.0826 2.14998 9.87213 1.46563 9.49337V9.55431C1.46492 10.6916 1.8581 11.794 2.57831 12.6742C3.29852 13.5544 4.30132 14.158 5.41625 14.3824C4.69206 14.5806 3.93198 14.6094 3.19484 14.4668C3.50945 15.4449 4.12157 16.3003 4.94577 16.9138C5.76997 17.5272 6.76512 17.868 7.79234 17.8887C6.04842 19.2586 3.89417 20.0016 1.67656 19.9981C1.28329 19.9975 0.890399 19.9734 0.5 19.9259C2.75286 21.3712 5.37353 22.1388 8.05016 22.1374Z" fill="#CECECE"/>
</g>
<defs>
<clipPath id="clip0_21_1043">
<rect width="24" height="24" fill="white" transform="translate(0.5 0.387207)"/>
</clipPath>
</defs>
</svg>
