<svg width="25" height="25" viewBox="0 0 25 25" fill="none" xmlns="http://www.w3.org/2000/svg">
<path fill-rule="evenodd" clip-rule="evenodd" d="M12.5 0.387207C5.87527 0.387207 0.5 5.76248 0.5 12.3872C0.5 19.012 5.87527 24.3872 12.5 24.3872C19.1117 24.3872 24.5 19.012 24.5 12.3872C24.5 5.76248 19.1117 0.387207 12.5 0.387207ZM20.4262 5.91866C21.8579 7.66269 22.717 9.88828 22.743 12.2961C22.4046 12.2311 19.0206 11.5412 15.6106 11.9707C15.5325 11.8015 15.4675 11.6193 15.3894 11.4371C15.1811 10.9426 14.9469 10.435 14.7126 9.95338C18.4869 8.41761 20.205 6.20499 20.4262 5.91866ZM12.5 2.15727C15.103 2.15727 17.4848 3.13341 19.2939 4.73428C19.1117 4.99458 17.5629 7.064 13.9186 8.43058C12.2397 5.34599 10.3786 2.82105 10.0922 2.43059C10.8601 2.24838 11.6671 2.15727 12.5 2.15727ZM8.13995 3.12039C8.41325 3.48482 10.2354 6.02278 11.9404 9.04228C7.15076 10.3178 2.92083 10.2918 2.46529 10.2918C3.12907 7.11606 5.27657 4.47397 8.13995 3.12039ZM2.24404 12.4003C2.24404 12.2961 2.24404 12.192 2.24404 12.0879C2.68655 12.1009 7.65835 12.166 12.7733 10.6302C13.0727 11.2028 13.346 11.7885 13.6063 12.3742C13.4761 12.4132 13.3329 12.4523 13.2028 12.4913C7.91865 14.1963 5.10738 18.8557 4.8731 19.2462C3.2462 17.4371 2.24404 15.0293 2.24404 12.4003ZM12.5 22.6432C10.1312 22.6432 7.94469 21.8362 6.21367 20.4826C6.39588 20.1052 8.47827 16.0966 14.257 14.0792C14.283 14.0662 14.2961 14.0662 14.3221 14.0532C15.7668 17.7885 16.3525 20.9251 16.5087 21.8232C15.2722 22.3568 13.9186 22.6432 12.5 22.6432ZM18.2136 20.8861C18.1096 20.2614 17.5629 17.2679 16.2223 13.5846C19.4371 13.077 22.2484 13.91 22.5998 14.0272C22.1573 16.8775 20.5173 19.3373 18.2136 20.8861Z" fill="#CECECE"/>
</svg>
