<svg width="16" height="16" viewBox="0 0 16 16" fill="none" xmlns="http://www.w3.org/2000/svg">
<path fill-rule="evenodd" clip-rule="evenodd" d="M7.58922 0.848145C3.43536 0.848145 0.0649414 4.21856 0.0649414 8.37242C0.0649414 12.5263 3.43536 15.8967 7.58922 15.8967C11.7349 15.8967 15.1135 12.5263 15.1135 8.37242C15.1135 4.21856 11.7349 0.848145 7.58922 0.848145ZM12.5591 4.31649C13.4568 5.41004 13.9955 6.80554 14.0118 8.31528C13.7996 8.27451 11.6778 7.84196 9.53965 8.11128C9.4907 8.00519 9.44988 7.89092 9.40092 7.77669C9.27033 7.46659 9.12347 7.14832 8.97655 6.84636C11.3432 5.88339 12.4204 4.49603 12.5591 4.31649ZM7.58922 1.95802C9.22138 1.95802 10.7148 2.57008 11.8492 3.57386C11.7349 3.73708 10.7638 5.03465 8.47873 5.89153C7.42599 3.95742 6.25902 2.37422 6.07947 2.12939C6.56093 2.01514 7.06694 1.95802 7.58922 1.95802ZM4.85537 2.56192C5.02673 2.79042 6.16925 4.38178 7.23831 6.27508C4.23512 7.07486 1.58286 7.05854 1.29723 7.05854C1.71343 5.06729 3.05996 3.41064 4.85537 2.56192ZM1.15849 8.38061C1.15849 8.31529 1.15849 8.25001 1.15849 8.18474C1.43596 8.19287 4.55339 8.23369 7.76058 7.27073C7.94832 7.62978 8.11968 7.99701 8.28291 8.36424C8.20127 8.38874 8.1115 8.41324 8.02991 8.4377C4.71661 9.50675 2.95387 12.4283 2.80698 12.6732C1.78687 11.5388 1.15849 10.0291 1.15849 8.38061ZM7.58922 14.8031C6.10393 14.8031 4.73293 14.2972 3.64754 13.4484C3.76179 13.2118 5.0675 10.6983 8.69091 9.43335C8.70723 9.42516 8.71542 9.42516 8.73173 9.41703C9.63756 11.7591 10.0048 13.7259 10.1028 14.289C9.32747 14.6236 8.47873 14.8031 7.58922 14.8031ZM11.1718 13.7014C11.1065 13.3097 10.7638 11.4327 9.9232 9.1232C11.939 8.80493 13.7017 9.32725 13.922 9.40071C13.6446 11.1879 12.6163 12.7303 11.1718 13.7014Z" fill="#98A2B3"/>
</svg>
