<svg width="16" height="16" viewBox="0 0 16 16" fill="none" xmlns="http://www.w3.org/2000/svg">
<g clip-path="url(#clip0_18_669)">
<path d="M5.62084 14.4862C11.2981 14.4862 14.4043 9.78146 14.4043 5.70277C14.4043 5.57051 14.4013 5.43531 14.3954 5.30304C14.9997 4.86607 15.5211 4.32482 15.9353 3.70472C15.3725 3.9551 14.7751 4.11861 14.1632 4.18969C14.8074 3.80355 15.2898 3.19694 15.5209 2.48232C14.9148 2.84148 14.2521 3.09483 13.561 3.23152C13.0954 2.73676 12.4797 2.40918 11.8093 2.29941C11.1388 2.18964 10.4508 2.3038 9.85173 2.62424C9.25264 2.94467 8.7758 3.45354 8.49492 4.07217C8.21405 4.69079 8.14478 5.38472 8.29784 6.04666C7.07073 5.98508 5.87026 5.66631 4.77425 5.11101C3.67824 4.55572 2.71116 3.77629 1.93571 2.82327C1.54158 3.50279 1.42098 4.30688 1.59841 5.07213C1.77584 5.83738 2.23799 6.50636 2.89094 6.9431C2.40075 6.92754 1.92129 6.79556 1.49219 6.55807V6.59628C1.49175 7.30939 1.73828 8.00064 2.18987 8.55254C2.64146 9.10443 3.27024 9.48291 3.96932 9.62363C3.51523 9.74787 3.03865 9.76597 2.57645 9.67653C2.77372 10.2898 3.15753 10.8262 3.67432 11.2108C4.19111 11.5955 4.81509 11.8092 5.45919 11.8221C4.36571 12.6811 3.01494 13.147 1.62445 13.1448C1.37786 13.1444 1.13151 13.1293 0.886719 13.0995C2.29931 14.0057 3.94254 14.4871 5.62084 14.4862Z" fill="#98A2B3"/>
</g>
<defs>
<clipPath id="clip0_18_669">
<rect width="15.0486" height="15.0486" fill="white" transform="translate(0.886719 0.848145)"/>
</clipPath>
</defs>
</svg>
