<svg width="16" height="16" viewBox="0 0 16 16" fill="none" xmlns="http://www.w3.org/2000/svg">
<g clip-path="url(#clip0_18_670)">
<path d="M14.4102 0.848145H1.58659C0.972306 0.848145 0.475586 1.33311 0.475586 1.9327V14.8092C0.475586 15.4088 0.972306 15.8967 1.58659 15.8967H14.4102C15.0245 15.8967 15.5241 15.4088 15.5241 14.8121V1.9327C15.5241 1.33311 15.0245 0.848145 14.4102 0.848145ZM4.94019 13.6717H2.70642V6.48841H4.94019V13.6717ZM3.8233 5.50967C3.10614 5.50967 2.52713 4.93065 2.52713 4.21643C2.52713 3.50222 3.10614 2.9232 3.8233 2.9232C4.53752 2.9232 5.11654 3.50222 5.11654 4.21643C5.11654 4.92771 4.53752 5.50967 3.8233 5.50967ZM13.2992 13.6717H11.0684V10.18C11.0684 9.34823 11.0537 8.27543 9.90739 8.27543C8.74641 8.27543 8.57006 9.18363 8.57006 10.1212V13.6717H6.34217V6.48841H8.48189V7.4701H8.51128C8.80814 6.90578 9.53705 6.30912 10.6216 6.30912C12.8818 6.30912 13.2992 7.79635 13.2992 9.73032V13.6717V13.6717Z" fill="#98A2B3"/>
</g>
<defs>
<clipPath id="clip0_18_670">
<rect width="15.0486" height="15.0486" fill="white" transform="translate(0.475586 0.848145)"/>
</clipPath>
</defs>
</svg>
